<svg width="64" height="64" viewBox="0 0 64 64" fill="none" xmlns="http://www.w3.org/2000/svg">
<path d="M25.3811 49.1516C13.3469 52.5758 13.3469 43.4446 8.5332 42.3032M42.2289 56V47.1656C42.3192 46.077 42.1642 44.9828 41.7741 43.9555C41.384 42.9282 40.7678 41.9914 39.9665 41.2074C47.524 40.4085 55.4665 37.6919 55.4665 25.2278C55.4659 22.0406 54.1733 18.9757 51.8563 16.6673C52.9535 13.8789 52.8759 10.7968 51.6397 8.06116C51.6397 8.06116 48.7996 7.26218 42.2289 11.4397C36.7125 10.0217 30.8975 10.0217 25.3811 11.4397C18.8104 7.26218 15.9703 8.06116 15.9703 8.06116C14.7341 10.7968 14.6565 13.8789 15.7537 16.6673C13.4194 18.9928 12.1255 22.0855 12.1435 25.2963C12.1435 37.6691 20.086 40.3856 27.6435 41.2759C26.8516 42.052 26.2409 42.9775 25.8511 43.9923C25.4613 45.007 25.3012 46.0882 25.3811 47.1656V56" stroke="black" stroke-width="5" stroke-linecap="round" stroke-linejoin="round"/>
</svg>
