<svg width="64" height="64" viewBox="0 0 64 64" fill="none" xmlns="http://www.w3.org/2000/svg">
<path d="M20.6691 15.8237C20.6691 18.6719 18.3044 20.9807 15.3873 20.9807C12.4702 20.9807 10.1055 18.6719 10.1055 15.8237C10.1055 12.9756 12.4702 10.6667 15.3873 10.6667C18.3044 10.6667 20.6691 12.9756 20.6691 15.8237Z" fill="black"/>
<path d="M10.8278 24.7714H19.8565V53.3334H10.8278V24.7714Z" fill="black"/>
<path d="M34.3928 24.7714H25.3641V53.3334H34.3928C34.3928 53.3334 34.3928 44.3416 34.3928 38.7196C34.3928 35.3451 35.4965 31.9559 39.9004 31.9559C44.8773 31.9559 44.8473 36.3719 44.8241 39.7931C44.7938 44.265 44.8662 48.8285 44.8662 53.3334H53.8949V38.259C53.8185 28.6336 51.4159 24.1984 43.5119 24.1984C38.8179 24.1984 35.9083 26.4231 34.3928 28.4358V24.7714Z" fill="black"/>
</svg>
