<svg width="40" height="40" viewBox="0 0 40 40" fill="none" xmlns="http://www.w3.org/2000/svg">
<g clip-path="url(#clip0_1561_1024)">
<path d="M20.0049 35.001C28.2892 35.001 35.0049 28.2852 35.0049 20.001C35.0049 11.7167 28.2892 5.00098 20.0049 5.00098C11.7206 5.00098 5.00488 11.7167 5.00488 20.001C5.00488 28.2852 11.7206 35.001 20.0049 35.001Z" stroke="#C61717" stroke-width="3" stroke-linecap="round" stroke-linejoin="round"/>
<path d="M13.5083 27.4988C14.1672 26.3591 15.1144 25.4127 16.2547 24.7548C17.395 24.0969 18.6884 23.7506 20.0049 23.7506C21.3213 23.7506 22.6147 24.0969 23.755 24.7548C24.8953 25.4127 25.8425 26.359 26.5015 27.4987" stroke="#C61717" stroke-width="3" stroke-linecap="round" stroke-linejoin="round"/>
<path d="M14.3799 18.751C15.4154 18.751 16.2549 17.9115 16.2549 16.876C16.2549 15.8404 15.4154 15.001 14.3799 15.001C13.3443 15.001 12.5049 15.8404 12.5049 16.876C12.5049 17.9115 13.3443 18.751 14.3799 18.751Z" fill="#C61717"/>
<path d="M25.6299 18.751C26.6654 18.751 27.5049 17.9115 27.5049 16.876C27.5049 15.8404 26.6654 15.001 25.6299 15.001C24.5943 15.001 23.7549 15.8404 23.7549 16.876C23.7549 17.9115 24.5943 18.751 25.6299 18.751Z" fill="#C61717"/>
</g>
<defs>
<clipPath id="clip0_1561_1024">
<rect width="40" height="40" fill="white" transform="translate(0.00488281 0.000976562)"/>
</clipPath>
</defs>
</svg>
