<svg width="1000" height="1000" viewBox="0 0 1000 1000" fill="none" xmlns="http://www.w3.org/2000/svg">
<path fill-rule="evenodd" clip-rule="evenodd" d="M440.685 545.135V276.135H475.685V545.135C475.685 605.552 425.986 654.593 365.685 655.13C365.352 655.133 365.018 655.135 364.685 655.135C364.351 655.135 364.018 655.133 363.685 655.13C303.383 654.593 253.685 605.552 253.685 545.135V65.1348H288.685V545.135C288.685 586.556 322.263 620.135 363.685 620.135H365.685C407.106 620.135 440.685 586.556 440.685 545.135Z" fill="#FF70A6"/>
<path fill-rule="evenodd" clip-rule="evenodd" d="M508.685 543.635V344.135H543.685V543.635C543.685 642.77 463.32 723.135 364.185 723.135C265.049 723.135 184.685 642.77 184.685 543.635V112.135H219.685V543.635C219.685 623.44 284.379 688.135 364.185 688.135C443.99 688.135 508.685 623.44 508.685 543.635Z" fill="#FF70A6"/>
<path d="M199.91 100.07C96.078 177.981 26.6173 293.221 6.21563 421.419C-14.1861 549.618 16.0706 680.727 90.5877 787.02C165.105 893.314 278.04 966.46 405.514 990.992C532.987 1015.52 665.004 989.517 773.649 918.472C882.294 847.426 959.049 736.912 987.685 610.298C1016.32 483.683 994.591 350.895 927.092 240.012C859.593 129.13 751.615 48.8447 625.991 16.1348C500.368 -16.5751 366.948 0.854164 253.942 64.7371L271.167 95.2056C376.261 35.7944 500.342 19.5852 617.172 50.0054C734.002 80.4256 834.421 155.091 897.196 258.212C959.97 361.333 980.178 484.826 953.547 602.577C926.916 720.328 855.533 823.107 754.493 889.179C653.453 955.251 530.678 979.437 412.128 956.623C293.578 933.808 188.548 865.782 119.247 766.929C49.9458 668.076 21.8071 546.145 40.7807 426.92C59.7543 307.695 123.121 201.092 219.685 128.635V86.1348L214.685 89.6348L208.185 94.1348L199.91 100.07Z" fill="#FF70A6"/>
<path d="M617.185 673.135C669.83 673.135 720.319 652.221 757.545 614.995C794.771 577.77 815.685 527.28 815.685 474.635C815.685 421.989 794.771 371.5 757.545 334.274C720.319 297.048 669.83 276.135 617.185 276.135L617.185 311.746C660.385 311.746 701.817 328.908 732.364 359.455C762.912 390.003 780.073 431.434 780.073 474.635C780.073 517.836 762.912 559.267 732.364 589.814C701.817 620.362 660.385 637.523 617.185 637.523L617.185 673.135Z" fill="#FF70A6"/>
<path d="M617.685 604.135C652.163 604.135 685.229 590.438 709.608 566.059C733.988 541.679 747.685 508.613 747.685 474.135C747.685 439.657 733.988 406.591 709.608 382.211C685.229 357.831 652.163 344.135 617.685 344.135L617.685 379.771C642.711 379.771 666.713 389.713 684.41 407.409C702.107 425.106 712.049 449.108 712.049 474.135C712.049 499.162 702.107 523.163 684.41 540.86C666.713 558.557 642.711 568.499 617.685 568.499V604.135Z" fill="#FF70A6"/>
<path d="M444.685 276.135H617.685V311.749L444.685 312.135V276.135Z" fill="#FF70A6"/>
<path d="M522.685 344.135H617.685V379.771L522.685 380.135V344.135Z" fill="#FF70A6"/>
<path d="M553.685 568.493L617.685 568.514V604.135H545.685C545.685 604.135 547.604 598.678 548.685 595.135C549.75 591.646 550.398 589.697 551.185 586.135C551.954 582.655 552.189 580.663 552.685 577.135C553.158 573.77 553.685 568.493 553.685 568.493Z" fill="#FF70A6"/>
<path d="M535.185 637.496L617.684 637.497V673.135H510.685C510.685 673.135 515.939 667.279 518.185 664.135C520.685 660.635 522.685 658.135 524.685 655.635C527.485 652.135 529.185 648.135 530.685 645.635C532.463 642.67 535.185 637.496 535.185 637.496Z" fill="#FF70A6"/>
<line x1="528.685" y1="673.135" x2="528.685" y2="975.135" stroke="#FF70A6" stroke-width="36"/>
</svg>
